 <svg xmlns="http://www.w3.org/2000/svg"  width="300.000000pt" height="111.000000pt" viewBox="0 0 300.000000 111.000000"  preserveAspectRatio="xMidYMid meet">  <g transform="translate(0.000000,111.000000) scale(0.050000,-0.050000)" fill="#F3D8C5" stroke="none"> <path d="M1127 1992 c-115 -99 -43 -312 105 -312 64 0 160 49 176 91 71 186 -135 347 -281 221z m218 -56 c47 -54 44 -114 -8 -170 -82 -86 -217 -36 -217 80 1 142 134 195 225 90z"/> <path d="M1970 1530 l0 -350 75 0 75 0 -10 185 -10 185 33 -76 c44 -101 125 -100 154 1 26 90 61 83 47 -10 -7 -41 -18 -122 -26 -180 l-13 -105 92 0 c91 0 142 87 75 129 -25 15 -28 425 -3 441 67 41 21 132 -62 126 -81 -6 -84 -9 -126 -120 -58 -156 -61 -156 -111 -7 -43 130 -44 131 -117 131 l-73 0 0 -350z"/> <path d="M2590 1530 l0 -350 80 0 80 0 0 350 0 350 -80 0 -80 0 0 -350z"/> <path d="M2870 1816 c22 -91 23 -492 2 -571 l-17 -65 95 0 95 0 -14 115 c-7 63 -18 144 -24 180 -21 123 24 65 86 -110 61 -174 62 -175 134 -181 l73 -6 0 258 c0 142 6 300 13 351 l12 93 -95 0 -95 0 14 -65 c63 -293 25 -356 -63 -105 l-56 160 -87 6 -88 7 15 -67z"/> <path d="M3431 1815 c8 -36 15 -164 15 -285 0 -121 -7 -249 -15 -285 l-16 -65 88 0 87 0 0 350 0 350 -87 0 -88 0 16 -65z"/> <path d="M3730 1530 l0 -350 75 0 75 0 -10 185 -10 185 33 -76 c44 -102 120 -99 161 6 24 65 26 56 16 -115 l-10 -185 92 0 c92 0 92 0 75 55 -21 66 -19 489 2 580 l16 65 -90 0 -89 0 -36 -121 c-49 -161 -58 -161 -113 -9 -45 126 -49 130 -117 130 l-70 0 0 -350z"/> <path d="M4423 1785 c3 -104 -58 -443 -86 -474 -49 -55 -18 -131 53 -131 61 0 70 6 70 48 0 144 147 171 170 32 13 -75 18 -80 82 -80 72 0 81 26 42 120 -34 82 -89 428 -80 499 l11 81 -132 0 -133 0 3 -95z m154 -240 c18 -82 17 -85 -31 -85 -51 0 -53 27 -11 170 12 44 15 38 42 -85z"/> <path d="M4870 1530 l0 -350 87 0 88 0 -14 65 c-39 195 -39 195 16 195 67 0 80 -27 77 -154 l-3 -106 90 0 c103 0 100 -8 48 158 -36 115 -37 131 -9 162 20 22 30 75 30 163 0 185 -37 217 -251 217 l-159 0 0 -350z m280 130 c0 -90 0 -90 -75 -96 l-75 -6 0 87 c0 106 10 119 89 111 58 -6 61 -10 61 -96z"/> <path d="M5410 1530 l0 -350 78 0 77 0 -12 88 c-9 71 -4 99 30 141 80 102 127 -36 66 -195 -11 -29 0 -34 80 -34 l94 0 -14 135 c-9 94 -28 154 -60 197 l-46 62 47 48 c32 32 52 82 62 153 l13 105 -92 0 c-51 0 -93 -2 -93 -5 0 -3 9 -36 19 -73 18 -60 13 -77 -43 -155 -83 -115 -84 -113 -68 73 l13 160 -76 0 -75 0 0 -350z"/> <path d="M1067 1468 c-123 -149 -157 -205 -157 -255 0 -35 -40 -155 -90 -268 l-90 -204 -264 -1 c-154 0 -269 -8 -276 -20 -8 -13 89 -20 276 -20 l289 0 98 219 97 219 86 13 c65 11 84 21 75 43 -6 17 17 66 54 112 l65 83 13 -156 12 -157 -124 -262 c-127 -266 -137 -319 -68 -356 72 -38 115 0 205 177 96 192 87 193 170 -18 59 -147 105 -191 170 -161 83 37 79 85 -24 329 -81 190 -93 235 -73 263 66 91 -3 545 -90 591 -120 65 -186 33 -354 -171z m353 112 c33 -33 40 -67 40 -185 0 -80 9 -176 20 -214 16 -55 13 -76 -14 -106 -19 -20 -97 -156 -175 -301 -110 -206 -151 -265 -186 -270 -67 -10 -59 22 78 306 l122 257 -18 179 c-17 161 -15 184 19 227 110 140 0 65 -126 -86 -174 -208 -182 -214 -218 -178 -23 24 -4 56 130 219 173 210 239 241 328 152z m120 -810 c93 -228 99 -276 37 -266 -76 11 -199 327 -160 411 37 79 27 91 123 -145z"/> <path d="M101 1125 c1 -30 21 -118 46 -195 l45 -140 251 -6 251 -5 83 181 c46 100 83 190 83 201 0 11 -151 19 -380 19 l-380 0 1 -55z m699 0 c0 -8 -29 -80 -65 -160 l-65 -145 -222 0 -221 0 -36 125 c-20 69 -40 141 -46 160 -9 32 16 35 323 35 182 0 332 -7 332 -15z"/> <path d="M2350 775 c17 -136 28 -175 51 -175 11 0 20 16 20 35 1 19 8 78 17 131 17 102 -6 147 -37 70 l-18 -46 -2 45 c0 25 -11 45 -23 45 -15 0 -17 -34 -8 -105z"/> <path d="M2513 867 c-36 -37 -13 -267 27 -267 22 0 40 9 40 20 0 11 -9 20 -20 20 -29 0 -25 95 5 107 19 7 18 16 -5 33 -23 17 -24 26 -5 33 33 14 32 67 -2 67 -14 0 -32 -6 -40 -13z"/> <path d="M2640 742 c0 -135 27 -193 46 -97 l9 45 2 -45 c8 -125 63 -41 63 96 0 134 -37 189 -42 63 l-3 -54 -12 58 c-27 121 -63 82 -63 -66z"/> <path d="M3343 862 c-46 -28 -22 -252 27 -252 35 0 41 15 46 112 6 116 -23 171 -73 140z"/> <path d="M3479 849 c-24 -29 -21 -45 20 -116 30 -52 36 -73 16 -57 -19 16 -36 18 -43 7 -20 -32 10 -83 49 -83 52 0 69 72 31 130 -18 27 -32 60 -32 74 1 19 6 18 19 -3 10 -17 26 -23 34 -14 17 17 -15 77 -46 87 -12 4 -33 -7 -48 -25z"/> <path d="M3820 742 c0 -132 25 -189 46 -107 9 33 9 33 12 0 1 -19 16 -35 32 -35 24 0 30 29 30 140 0 138 -38 205 -42 75 l-3 -65 -12 58 c-27 121 -63 82 -63 -66z"/> <path d="M4154 867 c-24 -23 -16 -86 18 -137 17 -27 27 -60 21 -74 -6 -16 -10 -13 -11 9 -1 19 -12 35 -23 35 -12 0 -19 -20 -15 -45 4 -30 20 -45 46 -45 53 0 63 72 19 139 -19 29 -29 58 -22 65 7 7 13 2 13 -11 0 -12 10 -23 21 -23 34 0 13 89 -22 95 -17 4 -37 0 -45 -8z"/> <path d="M4400 741 c0 -81 9 -141 20 -141 11 0 20 56 20 129 0 71 -9 134 -20 141 -13 8 -20 -40 -20 -129z"/> <path d="M4885 866 c-40 -15 -34 -244 7 -260 45 -17 67 28 68 137 0 92 -28 139 -75 123z"/> <path d="M5150 860 c-7 -11 2 -26 19 -32 23 -9 31 -41 31 -120 0 -59 9 -108 20 -108 11 0 20 49 20 108 0 66 9 112 24 117 12 4 16 18 8 31 -18 29 -105 32 -122 4z"/> <path d="M5333 826 c-31 -162 -35 -226 -15 -226 12 0 22 17 22 39 0 21 9 44 20 51 11 7 20 -6 20 -28 0 -38 33 -75 51 -57 17 16 -42 262 -65 270 -12 4 -27 -18 -33 -49z"/> <path d="M2808 736 c2 -132 36 -173 90 -108 48 58 20 221 -40 228 -52 6 -53 5 -50 -120z m72 4 c0 -44 -9 -80 -20 -80 -11 0 -20 36 -20 80 0 44 9 80 20 80 11 0 20 -36 20 -80z"/> <path d="M2960 730 c0 -125 2 -130 50 -130 28 0 50 9 50 20 0 11 -13 20 -30 20 -42 0 -38 79 5 112 33 25 33 27 0 27 -19 1 -35 7 -35 14 0 7 16 25 35 39 32 24 30 27 -20 27 -54 1 -55 0 -55 -129z"/> <path d="M3100 731 c0 -135 31 -181 46 -66 l8 65 3 -65 c4 -79 38 -85 54 -10 21 95 26 97 27 17 3 -124 28 -66 30 68 2 130 -65 192 -70 65 l-2 -55 -14 50 c-32 114 -82 72 -82 -69z"/> <path d="M3993 847 c-26 -26 -14 -202 16 -226 49 -41 71 -4 71 120 0 116 -34 158 -87 106z m67 -121 c0 -24 -9 -49 -20 -56 -12 -8 -20 21 -20 74 1 63 6 78 20 56 11 -16 20 -50 20 -74z"/> <path d="M4480 730 c0 -137 38 -186 43 -55 l2 75 13 -66 c16 -84 48 -84 64 0 l13 66 2 -75 c5 -131 43 -82 43 55 0 150 -69 202 -86 65 l-8 -65 -3 65 c-7 143 -83 84 -83 -65z"/> <path d="M4700 730 c0 -73 9 -130 20 -130 11 0 20 13 20 28 0 15 14 33 30 39 58 22 40 193 -20 193 -48 0 -50 -5 -50 -130z"/> <path d="M5000 730 c0 -119 22 -167 47 -105 8 20 10 20 11 0 6 -91 42 -1 42 105 0 125 -2 130 -50 130 -48 0 -50 -5 -50 -130z"/> <path d="M187 609 c-31 -49 -31 -54 7 -105 82 -110 253 -9 179 105 -24 36 -52 51 -93 51 -41 0 -69 -15 -93 -51z m143 -49 c0 -37 -12 -52 -45 -56 -49 -7 -77 36 -57 87 20 53 102 28 102 -31z"/> <path d="M591 629 c-80 -81 15 -220 119 -173 27 13 55 46 62 74 25 101 -106 173 -181 99z m126 -44 c26 -51 7 -85 -47 -85 -57 0 -77 27 -60 80 16 49 82 52 107 5z"/> 
 <path d="M100 240 c0 -40 13 -40 2860 -40 2847 0 2860 0 2860 40 0 40 -13 40 -2860 40 -2847 0 -2860 0 -2860 -40z"/> </g> 
 </svg> 