<svg width="24" height="24" viewBox="0 0 24 24" fill="none" xmlns="http://www.w3.org/2000/svg">
  <path d="M2 4H4.73285L7.66667 16.6667C7.72324 16.8334 7.84841 16.9803 8.02357 17.086C8.19874 17.1916 8.41015 17.2499 8.62407 17.2533H19.25V19.6667H9.25C9.08334 19.6667 8.92834 19.7567 8.82843 19.9142C8.72852 20.0717 8.6969 20.2817 8.74025 20.4833L10.3241 23.9833C10.3566 24.096 10.429 24.1969 10.5253 24.2693C10.6215 24.3418 10.7343 24.381 10.8495 24.381C11.0898 24.381 11.3034 24.2077 11.3514 23.9775L13.0758 17.2533H18.6667C18.7997 17.2533 18.9247 17.2016 19.0181 17.1082C19.1116 17.0148 19.1633 16.8898 19.1633 16.7567C19.1633 16.6237 19.1116 16.4987 19.0181 16.4053L18.0978 15.485C17.938 15.3252 17.938 15.0748 18.0978 14.915C18.2576 14.7552 18.508 14.7552 18.6678 14.915L19.367 15.6142V13.4217L8.98525 11.0693L7.69285 5.96001H21C21.1667 5.96001 21.3217 5.87 21.4216 5.71248C21.5215 5.55496 21.5531 5.34495 21.5098 5.14332L20.2828 0.943316C20.251 0.752271 20.1551 0.581046 20.0134 0.464225C19.8717 0.347404 19.694 0.294992 19.5149 0.319992L2 2.31999C1.81798 2.34445 1.65507 2.43905 1.54835 2.58355C1.44164 2.72805 1.40135 2.90879 1.43373 3.08726C1.46611 3.26573 1.56817 3.42746 1.72004 3.53999C1.8719 3.65252 2.05861 3.70723 2.24965 3.693L2 4ZM9.66667 21.6667C9.66667 21.9993 9.414 22.2501 9.08036 22.2501C8.74673 22.2501 8.49405 21.9993 8.49405 21.6667C8.49405 21.334 8.74673 21.0833 9.08036 21.0833C9.414 21.0833 9.66667 21.334 9.66667 21.6667ZM18.1473 18.0001H11.6667V20.3334H18.1473L18.1473 18.0001ZM3.38285 4.92001L18.4578 2.86001L19.2354 5.96001H3.31527L3.38285 4.92001Z" fill="#333333"/>
</svg>
